<svg width="136" height="136" viewBox="0 0 136 136" fill="none" xmlns="http://www.w3.org/2000/svg">
<mask id="mask0" mask-type="alpha" maskUnits="userSpaceOnUse" x="0" y="0" width="136" height="136">
<path fill-rule="evenodd" clip-rule="evenodd" d="M68 136C122.4 136 136 122.4 136 68C136 13.6 122.4 0 68 0C13.6 0 0 13.6 0 68C0 122.4 13.6 136 68 136Z" fill="black"/>
</mask>
<g mask="url(#mask0)">
<path d="M134.938 0H1.0625C0.475697 0 0 0.475697 0 1.0625V134.938C0 135.524 0.475697 136 1.0625 136H134.938C135.524 136 136 135.524 136 134.938V1.0625C136 0.475697 135.524 0 134.938 0Z" fill="url(#paint0_radial)"/>
<path d="M61.1485 24.9688L42.5 28.1352V110.545H61.1485V79.3672C61.1485 70.1925 66.0137 64.5092 70.0676 64.5092C73.7162 64.5092 74.7703 68.1631 74.7703 73.6838V110.545H93.5V71.0048C93.5 58.5013 88.7974 50.463 76.5542 50.463C70.7976 50.463 65.203 52.0868 61.1485 55.7403V24.9688Z" fill="white"/>
</g>
<defs>
<radialGradient id="paint0_radial" cx="0" cy="0" r="1" gradientUnits="userSpaceOnUse" gradientTransform="rotate(58.515) scale(130.2)">
<stop stop-color="#FF8C37"/>
<stop offset="1" stop-color="#EC3750"/>
</radialGradient>
</defs>
</svg>
